<svg width="1947" height="188" viewBox="0 0 1947 188" fill="none" xmlns="http://www.w3.org/2000/svg">
<path d="M88.7392 26.4643C90.21 28.3764 90.9455 30.3621 90.9455 32.4213C90.9455 34.9218 89.9894 36.9075 88.0773 38.3783C86.1651 39.7021 83.8853 40.364 81.2377 40.364C79.914 40.364 78.5166 39.9963 77.0458 39.2608C75.722 38.3783 74.3247 37.4223 72.8538 36.3926C71.53 35.216 70.1327 34.0393 68.6618 32.8626C67.338 31.5388 66.0878 30.5092 64.9111 29.7737C63.1461 29.3325 61.7487 28.8912 60.7191 28.45C59.6895 27.8616 57.998 27.4204 55.6446 27.1262C50.0553 27.8616 44.9808 30.0679 40.4212 33.7451C35.8615 37.2752 31.8901 41.7613 28.5071 47.2035C25.2712 52.4987 22.6972 58.3821 20.7851 64.8539C19.02 71.3258 18.1375 77.724 18.1375 84.0488C18.1375 89.1968 18.7994 94.0507 20.1232 98.6104C21.447 103.023 23.5062 106.994 26.3008 110.524C29.0955 113.907 32.4785 116.628 36.4498 118.688C40.5682 120.6 45.4221 121.556 51.0114 121.556C57.189 121.556 63.0725 120.306 68.6618 117.805C74.2511 115.305 78.296 111.701 80.7965 106.994C83.1499 103.611 85.7974 101.92 88.7392 101.92C90.7984 101.92 92.784 102.655 94.6962 104.126C96.7554 105.45 97.785 107.436 97.785 110.083C97.785 112.289 97.1966 114.422 96.02 116.481C94.8433 118.394 93.3724 120.232 91.6074 121.997C89.8423 123.615 87.9302 125.16 85.871 126.63C83.8118 127.954 81.8996 129.131 80.1346 130.16C75.8691 133.102 71.3094 135.235 66.4555 136.559C61.6016 137.883 56.8213 138.544 52.1146 138.544C45.2015 138.544 38.6561 137.441 32.4785 135.235C26.3008 132.882 20.8586 129.572 16.1518 125.307C11.5921 121.041 7.91498 115.746 5.12033 109.421C2.32568 103.096 0.928357 95.8157 0.928357 87.5788C0.928357 72.1347 3.87009 58.3086 9.75356 46.1004C15.7841 33.7451 24.1681 23.5961 34.9054 15.6534C37.553 13.5942 40.5682 12.1233 43.9512 11.2408C47.3342 10.2112 50.8643 9.6964 54.5415 9.6964C58.6599 9.6964 62.19 10.1377 65.1317 11.0202C68.0735 11.9027 70.7946 13.1529 73.295 14.7709C75.9426 16.2418 78.4431 18.0068 80.7965 20.066C83.1499 22.1252 85.7974 24.258 88.7392 26.4643ZM130.88 55.3668C128.82 53.0135 127.791 50.7336 127.791 48.5273C127.791 46.0268 128.526 43.8941 129.997 42.129C131.615 40.364 133.674 39.4815 136.175 39.4815C138.087 39.4815 139.999 40.0698 141.911 41.2465C143.823 42.2761 145.588 43.5999 147.206 45.2179C148.824 46.6887 150.221 48.1596 151.398 49.6305C152.575 51.1013 153.31 52.1309 153.604 52.7193C153.899 52.5722 154.56 52.4987 155.59 52.4987C158.385 52.4987 161.032 53.2341 163.533 54.705C166.18 56.0287 168.534 57.7938 170.593 60.0001C172.799 62.2064 174.711 64.5598 176.329 67.0602C177.947 69.5607 179.345 71.9141 180.521 74.1204C181.698 76.3267 182.728 78.7536 183.61 81.4012C184.64 83.9017 185.449 86.4757 186.037 89.1233C186.625 91.7708 187.067 94.3448 187.361 96.8453C187.655 99.3458 187.802 101.626 187.802 103.685C187.802 109.715 186.993 115.378 185.375 120.673C183.904 125.821 181.404 130.381 177.874 134.352C174.491 138.324 170.005 141.413 164.415 143.619C158.826 145.972 151.986 147.149 143.897 147.149C138.013 147.149 133.159 145.384 129.335 141.854C125.658 138.324 122.79 134.205 120.731 129.499C118.671 124.645 117.2 119.717 116.318 114.716C115.582 109.715 115.215 105.671 115.215 102.582C115.215 99.64 115.582 96.7718 116.318 93.9771C117.053 91.1825 118.009 88.6085 119.186 86.2551C120.363 83.7546 121.54 81.5483 122.716 79.6362C124.04 77.724 125.29 76.1061 126.467 74.7823L137.498 61.7651C137.351 61.1768 136.837 60.5149 135.954 59.7794C135.219 58.8969 134.483 58.0879 133.748 57.3525L130.88 55.3668ZM153.163 69.4872L152.281 70.811C150.516 73.0173 148.53 75.2971 146.324 77.6505C144.264 80.0039 142.279 82.4308 140.367 84.9313C138.454 87.4318 136.837 90.1529 135.513 93.0946C134.189 96.0363 133.527 99.2722 133.527 102.802C133.527 106.038 133.748 109.274 134.189 112.51C134.777 115.599 135.513 118.394 136.395 120.894C137.425 123.394 138.675 125.454 140.146 127.072C141.617 128.543 143.308 129.278 145.22 129.278C146.838 129.278 148.456 129.131 150.074 128.837C151.839 128.543 153.384 128.248 154.708 127.954L162.65 123.983C163.092 123.394 163.827 122.659 164.857 121.777C165.886 120.747 166.695 119.717 167.283 118.688C168.607 113.834 169.269 109.054 169.269 104.347C169.269 98.1691 168.24 92.2856 166.18 86.6963C164.121 80.9599 160.959 75.7384 156.693 71.0316L154.046 69.7078H153.825C153.531 69.7078 153.31 69.6343 153.163 69.4872ZM268.994 117.364C270.906 115.158 272.524 113.76 273.848 113.172C275.319 112.437 276.863 112.069 278.481 112.069C280.982 112.069 282.82 113.098 283.997 115.158C285.321 117.217 285.983 119.57 285.983 122.218C285.247 125.012 283.997 127.366 282.232 129.278C280.614 131.19 278.628 132.734 276.275 133.911C273.921 135.088 271.347 135.97 268.553 136.559C265.758 137 262.963 137.221 260.169 137.221C257.227 137.074 254.285 136.632 251.344 135.897C248.549 135.161 245.901 134.205 243.401 133.029C240.9 131.705 238.694 130.234 236.782 128.616C235.017 126.851 233.767 124.865 233.031 122.659C229.648 114.275 227.368 105.671 226.192 96.8453C225.015 87.873 224.427 79.1949 224.427 70.811V65.2952L210.748 67.2809C207.806 66.9867 205.526 65.9571 203.908 64.192C202.437 62.427 201.702 60.2942 201.702 57.7938C201.702 56.1758 202.29 54.5579 203.467 52.9399C204.644 51.1749 206.409 49.9246 208.762 49.1892L224.868 47.2035C224.868 42.0555 225.015 36.981 225.309 31.98C225.75 26.832 226.045 21.684 226.192 16.5359C227.81 11.3879 230.751 8.51971 235.017 7.93136C239.282 7.93136 242.371 10.6525 244.283 16.0947C243.989 21.9781 243.548 29.3325 242.96 38.1577L242.518 44.3353C246.343 43.747 250.314 43.3057 254.432 43.0116C258.551 42.7174 262.89 42.5703 267.45 42.5703C272.745 44.4824 275.392 47.4242 275.392 51.3955C275.098 53.4547 274.289 55.3668 272.965 57.1319C271.642 58.7498 269.656 59.853 267.008 60.4413C258.33 60.4413 250.02 61.1032 242.077 62.427V68.1634C242.077 72.8702 242.224 77.5769 242.518 82.2837C242.813 86.8434 243.18 91.256 243.622 95.5215C244.21 99.64 244.945 103.464 245.828 106.994C246.71 110.377 247.74 113.172 248.917 115.378C250.829 116.261 253.035 117.143 255.536 118.026C258.036 118.761 260.463 119.129 262.816 119.129C264.14 119.129 265.905 118.761 268.111 118.026L268.994 117.364ZM366.071 117.364C367.983 115.158 369.601 113.76 370.925 113.172C372.396 112.437 373.94 112.069 375.558 112.069C378.059 112.069 379.897 113.098 381.074 115.158C382.398 117.217 383.06 119.57 383.06 122.218C382.324 125.012 381.074 127.366 379.309 129.278C377.691 131.19 375.705 132.734 373.352 133.911C370.999 135.088 368.425 135.97 365.63 136.559C362.835 137 360.041 137.221 357.246 137.221C354.304 137.074 351.363 136.632 348.421 135.897C345.626 135.161 342.979 134.205 340.478 133.029C337.978 131.705 335.771 130.234 333.859 128.616C332.094 126.851 330.844 124.865 330.109 122.659C326.726 114.275 324.446 105.671 323.269 96.8453C322.092 87.873 321.504 79.1949 321.504 70.811V65.2952L307.825 67.2809C304.883 66.9867 302.603 65.9571 300.985 64.192C299.515 62.427 298.779 60.2942 298.779 57.7938C298.779 56.1758 299.367 54.5579 300.544 52.9399C301.721 51.1749 303.486 49.9246 305.839 49.1892L321.945 47.2035C321.945 42.0555 322.092 36.981 322.386 31.98C322.828 26.832 323.122 21.684 323.269 16.5359C324.887 11.3879 327.829 8.51971 332.094 7.93136C336.36 7.93136 339.449 10.6525 341.361 16.0947C341.067 21.9781 340.625 29.3325 340.037 38.1577L339.596 44.3353C343.42 43.747 347.391 43.3057 351.51 43.0116C355.628 42.7174 359.967 42.5703 364.527 42.5703C369.822 44.4824 372.47 47.4242 372.47 51.3955C372.175 53.4547 371.366 55.3668 370.043 57.1319C368.719 58.7498 366.733 59.853 364.086 60.4413C355.407 60.4413 347.097 61.1032 339.154 62.427V68.1634C339.154 72.8702 339.301 77.5769 339.596 82.2837C339.89 86.8434 340.258 91.256 340.699 95.5215C341.287 99.64 342.023 103.464 342.905 106.994C343.788 110.377 344.817 113.172 345.994 115.378C347.906 116.261 350.112 117.143 352.613 118.026C355.113 118.761 357.54 119.129 359.894 119.129C361.217 119.129 362.982 118.761 365.189 118.026L366.071 117.364ZM456.971 106.112L455.426 105.891C453.22 105.45 451.161 104.714 449.249 103.685C447.484 102.655 445.719 101.626 443.954 100.596C442.189 99.5664 440.497 98.6839 438.879 97.9485C437.261 97.0659 435.643 96.6247 434.025 96.6247C428.877 97.213 424.391 98.9781 420.567 101.92C416.89 104.862 415.051 108.392 415.051 112.51C415.051 113.687 415.345 114.937 415.934 116.261C416.522 117.585 417.478 119.276 418.802 121.335C422.626 123.689 426.818 124.865 431.378 124.865C436.673 124.865 441.306 124.351 445.277 123.321L448.146 120.453C449.617 118.541 451.602 117.585 454.103 117.585H455.206C455.353 116.408 455.5 115.231 455.647 114.054C455.794 112.878 456.015 111.701 456.309 110.524L456.971 106.112ZM460.28 132.808L455.206 137.662C453.294 139.427 450.205 140.677 445.939 141.413C441.821 142.295 437.482 142.736 432.922 142.736C426.745 142.736 421.449 142.074 417.037 140.751C412.771 139.427 409.021 136.853 405.785 133.029C400.49 125.968 397.842 119.35 397.842 113.172C397.842 109.054 398.651 105.009 400.269 101.037C402.034 96.9189 404.461 93.2417 407.55 90.0058C410.639 86.7699 414.389 84.1223 418.802 82.0631C423.362 80.0039 428.436 78.9743 434.025 78.9743C436.379 79.2684 438.659 79.7832 440.865 80.5187C443.071 81.2541 445.13 82.0631 447.043 82.9456C448.955 83.8281 450.646 84.7107 452.117 85.5932C453.735 86.3286 454.985 86.917 455.868 87.3582L454.544 81.4012C453.809 79.0478 452.926 76.768 451.896 74.5617C450.867 72.2083 449.617 69.9284 448.146 67.7221L443.733 63.7508C442.556 63.4566 441.453 63.0889 440.424 62.6476C439.394 62.0593 438.07 61.7651 436.452 61.7651C432.187 62.0593 427.995 62.6476 423.876 63.5302C419.758 64.2656 415.64 65.3687 411.521 66.8396C411.08 66.9867 410.418 67.0602 409.535 67.0602C406.447 67.0602 404.02 66.1777 402.255 64.4127C400.637 62.6476 399.828 60.7355 399.828 58.6763C399.828 56.9113 400.269 55.3668 401.151 54.0431C402.034 52.5722 403.725 51.1013 406.226 49.6305C410.05 48.4538 414.242 47.2035 418.802 45.8797C423.509 44.4089 428.215 43.6734 432.922 43.6734C441.012 43.6734 447.704 45.2914 453 48.5273C458.442 51.7632 462.707 56.0287 465.796 61.3239C469.032 66.4719 471.238 72.2083 472.415 78.533C473.739 84.8577 474.401 91.1089 474.401 97.2866C474.401 100.964 474.254 104.935 473.959 109.201C473.812 113.319 473.298 117.217 472.415 120.894C471.68 124.424 470.576 127.366 469.106 129.719C467.635 132.073 465.649 133.249 463.149 133.249C462.56 133.249 461.972 133.249 461.383 133.249C460.795 133.102 460.427 132.955 460.28 132.808ZM535.515 71.4728C533.015 70.8845 530.735 70.1491 528.676 69.2665C526.764 68.384 524.704 67.9428 522.498 67.9428C520.439 67.9428 518.6 68.6047 516.982 69.9284C515.511 71.1051 514.188 72.7231 513.011 74.7823C511.981 76.8415 511.172 79.1214 510.584 81.6218C509.996 84.1223 509.702 86.6963 509.702 89.3439C509.702 90.9618 509.922 92.8004 510.363 94.8596C510.805 96.7718 511.393 98.5368 512.128 100.155C513.011 101.773 514.041 103.17 515.217 104.347C516.394 105.376 517.791 105.891 519.409 105.891C522.204 105.891 524.631 105.009 526.69 103.244C528.896 101.479 530.661 99.2722 531.985 96.6247C533.309 93.9771 534.265 91.1089 534.853 88.0201C535.589 84.9313 535.956 82.0631 535.956 79.4155C535.956 78.0917 535.883 76.8415 535.736 75.6648C535.589 74.341 535.515 72.9437 535.515 71.4728ZM510.143 187.524C506.76 187.524 504.406 186.421 503.083 184.215C501.759 182.156 501.097 180.096 501.097 178.037C501.097 175.978 501.832 174.066 503.303 172.301C504.921 170.536 507.054 169.653 509.702 169.653C515.879 169.653 521.027 168.697 525.146 166.785C529.264 164.873 532.574 162.299 535.074 159.063C537.722 155.827 539.56 152.003 540.59 147.59C541.619 143.325 542.134 138.765 542.134 133.911C542.134 130.675 541.987 127.439 541.693 124.203C541.546 120.968 541.325 117.658 541.031 114.275C534.853 120.453 527.72 123.542 519.63 123.542C515.217 123.542 511.319 122.659 507.936 120.894C504.553 118.982 501.685 116.481 499.332 113.393C496.979 110.157 495.14 106.479 493.816 102.361C492.639 98.2426 492.051 93.9771 492.051 89.5645C492.051 85.299 492.639 80.8129 493.816 76.1061C495.14 71.3993 497.052 67.0602 499.553 63.0889C502.2 59.1176 505.362 55.8816 509.04 53.3812C512.864 50.7336 517.276 49.4098 522.277 49.4098C524.778 49.4098 527.425 49.7775 530.22 50.513C533.015 51.1013 535.589 51.9103 537.942 52.9399C540.443 53.8224 542.575 54.852 544.34 56.0287C546.105 57.0583 547.209 57.9409 547.65 58.6763C548.532 60.2942 548.974 61.8387 548.974 63.3095L550.077 63.9714C551.548 65.4423 552.724 67.428 553.607 69.9284C554.048 75.0765 554.637 80.0774 555.372 84.9313C556.254 89.6381 557.063 94.3448 557.799 99.0516C558.534 103.611 559.196 108.318 559.785 113.172C560.373 117.879 560.667 122.806 560.667 127.954C560.667 133.838 559.932 140.236 558.461 147.149C556.99 154.209 554.563 160.681 551.18 166.564C547.944 172.595 543.605 177.596 538.163 181.567C532.868 185.539 526.396 187.524 518.747 187.524H510.143ZM593.1 78.7536C592.806 78.9007 592.658 79.0478 592.658 79.1949H593.1C594.129 79.1949 595.159 79.4891 596.188 80.0774C597.218 80.5187 598.101 81.107 598.836 81.8425C599.571 82.4308 600.16 83.0192 600.601 83.6075C601.189 84.0488 601.557 84.2694 601.704 84.2694C603.911 85.299 606.337 85.8138 608.985 85.8138C613.251 85.8138 616.854 85.2255 619.796 84.0488C622.738 82.725 624.209 79.6362 624.209 74.7823C623.326 71.8406 622.296 69.4136 621.12 67.5015C620.09 65.5894 618.325 63.7508 615.825 61.9857L611.191 60.0001H608.103C606.926 60.0001 605.381 60.2942 603.469 60.8826C601.557 61.4709 599.645 62.2799 597.733 63.3095C597.145 64.192 596.556 65.5158 595.968 67.2809C595.38 68.8988 594.865 70.5168 594.423 72.1347C593.982 73.7527 593.614 75.2236 593.32 76.5473C593.173 77.8711 593.1 78.6066 593.1 78.7536ZM594.865 100.155L594.203 97.7278C595.968 105.523 600.233 111.922 606.999 116.923C608.47 118.099 610.309 119.129 612.515 120.011C614.869 120.894 617.148 121.703 619.355 122.438C621.708 123.174 623.767 123.762 625.532 124.203C627.297 124.498 628.401 124.645 628.842 124.645C630.313 123.321 632.151 122.659 634.358 122.659C637.005 122.953 639.064 124.056 640.535 125.968C642.006 127.734 642.741 129.646 642.741 131.705C642.741 134.941 641.197 137.515 638.108 139.427C635.166 141.486 632.004 142.516 628.621 142.516C621.414 142.516 614.574 141.045 608.103 138.103C601.631 135.309 595.968 131.484 591.114 126.63C586.26 121.777 582.289 116.187 579.2 109.862C576.258 103.538 574.64 96.8453 574.346 89.7851C574.346 84.9313 574.714 79.7097 575.449 74.1204C576.185 68.5311 577.729 63.3831 580.082 58.6763C582.436 53.8224 585.819 49.7775 590.231 46.5416C594.791 43.3057 600.822 41.6878 608.323 41.6878C613.03 41.6878 617.443 42.7174 621.561 44.7766C625.679 46.6887 629.209 49.3363 632.151 52.7193C635.24 56.1023 637.667 60.0001 639.432 64.4127C641.197 68.6782 642.08 73.1643 642.08 77.8711C642.08 82.1366 641.271 85.8873 639.653 89.1233C638.182 92.3592 636.123 95.0803 633.475 97.2866C630.827 99.3458 627.665 100.964 623.988 102.14C620.458 103.17 616.707 103.685 612.736 103.685C611.118 103.685 609.279 103.538 607.22 103.244C605.308 102.949 603.469 102.655 601.704 102.361C599.939 101.92 598.395 101.552 597.071 101.258C595.894 100.817 595.159 100.449 594.865 100.155ZM737.392 12.5646C738.716 15.0651 739.377 17.4185 739.377 19.6248C739.377 21.684 738.495 23.5226 736.73 25.1405C735.112 26.6114 732.979 27.3468 730.332 27.3468C728.567 27.3468 726.949 26.9791 725.478 26.2437C719.741 21.3898 713.49 18.9629 706.724 18.9629C699.076 18.9629 692.604 22.0517 687.309 28.2293C687.162 28.8177 686.941 29.4796 686.647 30.215C686.5 30.9504 686.279 31.6123 685.985 32.2007C685.985 38.3783 687.603 43.5264 690.839 47.6448C694.075 51.6161 698.12 55.2198 702.974 58.4557C707.827 61.5445 713.049 64.4862 718.638 67.2809C724.228 70.0755 729.449 73.3114 734.303 76.9886C739.157 80.6658 743.202 85.1519 746.438 90.447C749.674 95.5951 751.292 102.067 751.292 109.862C751.292 116.334 749.747 121.777 746.658 126.189C743.717 130.602 739.966 134.205 735.406 137C730.846 139.648 725.993 141.56 720.845 142.736C715.697 144.06 710.916 144.722 706.504 144.722C698.855 144.722 691.354 143.104 683.999 139.868C676.645 136.779 670.247 132.073 664.804 125.748C663.628 124.13 662.451 122.071 661.274 119.57C660.098 117.07 659.509 114.643 659.509 112.289C659.509 109.789 660.245 107.656 661.716 105.891C663.334 103.979 665.613 103.023 668.555 103.023C671.35 103.023 673.556 104.273 675.174 106.774C676.939 109.127 678.484 112.069 679.807 115.599C683.632 119.423 687.75 122.291 692.163 124.203C696.575 125.968 701.135 126.851 705.842 126.851C707.607 126.851 709.813 126.704 712.461 126.41C715.108 125.968 717.682 125.307 720.183 124.424C722.83 123.542 725.184 122.438 727.243 121.115C729.449 119.644 730.994 117.879 731.876 115.82C732.17 114.643 732.391 113.687 732.538 112.951C732.832 112.069 733.126 111.26 733.42 110.524C732.538 105.523 730.699 101.184 727.905 97.5072C725.257 93.83 722.095 90.5941 718.418 87.7995C714.74 85.0048 710.843 82.5779 706.724 80.5187C702.753 78.4595 699.076 76.4738 695.693 74.5617C689.662 71.1787 684.22 67.1338 679.366 62.427C674.512 57.5731 670.835 50.5865 668.335 41.4671C667.599 38.8196 667.231 36.3191 667.231 33.9657C667.231 28.9648 668.482 24.4051 670.982 20.2866C673.483 16.1682 676.719 12.7117 680.69 9.91703C684.661 6.9753 689.147 4.69545 694.148 3.0775C699.149 1.45954 704.224 0.650565 709.372 0.650565C715.402 0.650565 720.624 1.75372 725.037 3.96002C729.449 6.01923 733.568 8.88742 737.392 12.5646ZM825.865 106.112L824.32 105.891C822.114 105.45 820.055 104.714 818.142 103.685C816.377 102.655 814.612 101.626 812.847 100.596C811.082 99.5664 809.391 98.6839 807.773 97.9485C806.155 97.0659 804.537 96.6247 802.919 96.6247C797.771 97.213 793.285 98.9781 789.461 101.92C785.783 104.862 783.945 108.392 783.945 112.51C783.945 113.687 784.239 114.937 784.827 116.261C785.416 117.585 786.372 119.276 787.696 121.335C791.52 123.689 795.712 124.865 800.271 124.865C805.567 124.865 810.2 124.351 814.171 123.321L817.039 120.453C818.51 118.541 820.496 117.585 822.996 117.585H824.099C824.247 116.408 824.394 115.231 824.541 114.054C824.688 112.878 824.908 111.701 825.203 110.524L825.865 106.112ZM829.174 132.808L824.099 137.662C822.187 139.427 819.099 140.677 814.833 141.413C810.715 142.295 806.376 142.736 801.816 142.736C795.638 142.736 790.343 142.074 785.93 140.751C781.665 139.427 777.914 136.853 774.678 133.029C769.383 125.968 766.736 119.35 766.736 113.172C766.736 109.054 767.545 105.009 769.163 101.037C770.928 96.9189 773.355 93.2417 776.443 90.0058C779.532 86.7699 783.283 84.1223 787.696 82.0631C792.255 80.0039 797.33 78.9743 802.919 78.9743C805.272 79.2684 807.552 79.7832 809.759 80.5187C811.965 81.2541 814.024 82.0631 815.936 82.9456C817.848 83.8281 819.54 84.7107 821.011 85.5932C822.629 86.3286 823.879 86.917 824.761 87.3582L823.438 81.4012C822.702 79.0478 821.82 76.768 820.79 74.5617C819.76 72.2083 818.51 69.9284 817.039 67.7221L812.627 63.7508C811.45 63.4566 810.347 63.0889 809.317 62.6476C808.288 62.0593 806.964 61.7651 805.346 61.7651C801.08 62.0593 796.888 62.6476 792.77 63.5302C788.652 64.2656 784.533 65.3687 780.415 66.8396C779.973 66.9867 779.312 67.0602 778.429 67.0602C775.34 67.0602 772.913 66.1777 771.148 64.4127C769.53 62.6476 768.721 60.7355 768.721 58.6763C768.721 56.9113 769.163 55.3668 770.045 54.0431C770.928 52.5722 772.619 51.1013 775.12 49.6305C778.944 48.4538 783.136 47.2035 787.696 45.8797C792.402 44.4089 797.109 43.6734 801.816 43.6734C809.906 43.6734 816.598 45.2914 821.893 48.5273C827.335 51.7632 831.601 56.0287 834.69 61.3239C837.926 66.4719 840.132 72.2083 841.309 78.533C842.632 84.8577 843.294 91.1089 843.294 97.2866C843.294 100.964 843.147 104.935 842.853 109.201C842.706 113.319 842.191 117.217 841.309 120.894C840.573 124.424 839.47 127.366 837.999 129.719C836.528 132.073 834.543 133.249 832.042 133.249C831.454 133.249 830.865 133.249 830.277 133.249C829.689 133.102 829.321 132.955 829.174 132.808ZM928.458 63.9714C931.399 63.9714 933.9 64.7069 935.959 66.1777C938.018 67.5015 939.048 69.5607 939.048 72.3554C939.048 73.9733 938.607 75.5913 937.724 77.2092C936.989 78.8272 935.591 80.2981 933.532 81.6218C929.414 82.7985 925.148 84.1958 920.735 85.8138C916.323 87.2847 911.984 88.9762 907.718 90.8883C903.6 92.8004 899.629 94.9332 895.804 97.2866C892.127 99.4929 888.965 101.773 886.317 104.126C887.053 104.126 888.744 104.714 891.392 105.891C894.039 106.921 896.54 107.95 898.893 108.98C905.071 111.775 911.101 114.496 916.985 117.143C923.015 119.791 929.561 121.335 936.621 121.777C941.916 123.542 944.564 126.63 944.564 131.043C943.828 135.456 941.107 138.397 936.4 139.868C931.988 139.427 927.869 138.765 924.045 137.883C920.368 137.147 916.544 136.191 912.572 135.014C908.748 133.691 904.629 132.146 900.217 130.381C895.804 128.469 890.73 126.189 884.993 123.542C883.228 122.806 882.346 122.438 882.346 122.438V135.676C882.346 137.883 881.463 139.721 879.698 141.192C877.933 142.81 876.021 143.619 873.962 143.619C871.756 143.619 869.623 142.957 867.564 141.633C865.504 140.309 864.475 138.03 864.475 134.794C864.475 113.76 864.181 93.0211 863.592 72.576C863.004 52.1309 862.71 31.2446 862.71 9.91703C863.298 7.41656 864.328 5.50443 865.799 4.18065C867.417 2.85687 869.329 2.04789 871.535 1.75372C875.948 1.75372 878.963 4.40128 880.581 9.6964C880.581 20.2866 880.654 30.7298 880.801 41.0259C880.949 51.322 881.169 61.618 881.463 71.9141L881.905 86.2551C888.082 81.6954 895.069 77.4299 902.864 73.4585C910.66 69.4872 919.191 66.3248 928.458 63.9714ZM1047.82 137.883C1047.23 137.883 1046.72 137.956 1046.27 138.103C1042.45 138.103 1038.92 137.074 1035.68 135.014C1032.59 132.955 1030.32 130.455 1028.84 127.513V127.292C1028.7 127.292 1028.4 127.66 1027.96 128.395C1024.58 132.514 1021.2 135.456 1017.81 137.221C1014.43 138.986 1010.53 139.868 1006.12 139.868C1000.38 139.868 994.867 139.059 989.572 137.441C984.277 135.823 979.644 133.323 975.672 129.94C971.701 126.557 968.465 122.365 965.965 117.364C963.611 112.216 962.435 106.185 962.435 99.2722C962.435 92.5063 963.023 85.4461 964.2 78.0917C965.523 70.7374 966.479 63.9714 967.068 57.7938C967.803 54.9991 969.053 52.9399 970.819 51.6161C972.731 50.2923 974.569 49.6305 976.334 49.6305C978.835 49.6305 980.894 50.513 982.512 52.278C984.277 53.896 985.159 56.3965 985.159 59.7794C984.865 61.8387 984.424 64.2656 983.836 67.0602C983.394 69.7078 982.953 72.6495 982.512 75.8854C982.071 78.9743 981.629 82.2102 981.188 85.5932C980.894 88.9762 980.747 92.2856 980.747 95.5215C980.747 98.7574 981.262 101.993 982.291 105.229C983.321 108.465 984.718 111.407 986.483 114.054C988.395 116.555 990.528 118.614 992.882 120.232C995.235 121.85 997.735 122.659 1000.38 122.659C1002.15 122.659 1003.99 122.512 1005.9 122.218C1007.81 121.924 1009.65 120.968 1011.41 119.35C1013.33 117.585 1015.09 115.011 1016.71 111.628C1018.33 108.245 1019.58 103.464 1020.46 97.2866C1020.31 94.9332 1020.17 92.8004 1020.02 90.8883C1020.02 88.9762 1020.02 87.2111 1020.02 85.5932L1019.8 54.9256C1020.39 52.4251 1021.42 50.513 1022.89 49.1892C1024.51 47.8654 1026.42 47.0564 1028.62 46.7623C1033.04 46.7623 1036.13 49.4098 1037.89 54.705C1037.89 56.3229 1037.82 58.0144 1037.67 59.7794C1037.67 61.3974 1037.67 63.0154 1037.67 64.6333C1037.67 69.0459 1037.82 73.385 1038.11 77.6505C1038.4 81.7689 1038.55 85.9609 1038.55 90.2264C1038.55 91.6973 1038.55 93.1681 1038.55 94.639C1038.55 95.9628 1038.48 97.2866 1038.33 98.6104C1038.92 102.14 1039.73 105.523 1040.76 108.759C1041.93 111.995 1043.33 114.79 1044.95 117.143C1045.39 116.996 1046.13 116.923 1047.16 116.923C1049.51 116.923 1051.5 117.805 1053.11 119.57C1054.88 121.335 1055.76 123.836 1055.76 127.072C1055.32 129.278 1054.81 130.969 1054.22 132.146C1053.78 133.176 1052.82 134.5 1051.35 136.117L1047.82 137.883ZM1076.72 130.602C1076.72 126.63 1076.79 122.512 1076.94 118.246C1077.24 113.981 1077.75 109.936 1078.49 106.112L1080.03 89.7851L1082.02 77.8711C1082.46 75.959 1082.68 74.1939 1082.68 72.576C1082.68 70.811 1082.31 68.9724 1081.57 67.0602C1080.99 65.1481 1079.29 64.192 1076.5 64.192C1075.32 64.192 1074.15 63.8979 1072.97 63.3095C1071.94 62.5741 1070.98 61.7651 1070.1 60.8826C1069.22 59.853 1068.48 58.8234 1067.9 57.7938C1067.45 56.7642 1067.23 55.8081 1067.23 54.9256C1067.23 53.1605 1068.12 51.2484 1069.88 49.1892C1071.65 47.13 1074.07 46.1004 1077.16 46.1004C1084.81 46.8358 1090.4 48.9686 1093.93 52.4987C1097.46 56.0287 1099.23 60.3678 1099.23 65.5158C1103.64 62.427 1108.79 60.1472 1114.67 58.6763C1120.55 57.0583 1127.54 55.9552 1135.63 55.3668C1138.87 55.3668 1141.37 56.2494 1143.13 58.0144C1144.9 59.6324 1145.78 61.6916 1145.78 64.192C1145.78 66.3984 1145.04 68.384 1143.57 70.1491C1142.1 71.767 1140.12 72.7966 1137.61 73.2379C1130.85 73.6791 1125.11 74.4146 1120.41 75.4442C1115.7 76.4738 1111.73 78.1653 1108.49 80.5187C1105.26 82.725 1102.76 85.7403 1100.99 89.5645C1099.23 93.3888 1097.9 98.3162 1097.02 104.347L1096.36 107.656V116.702C1096.21 118.908 1096.06 121.188 1095.92 123.542C1095.92 125.748 1095.77 128.028 1095.47 130.381L1094.81 134.352L1093.49 137.883C1091.14 140.677 1088.41 142.074 1085.33 142.074C1080.03 142.074 1077.16 138.986 1076.72 132.808V130.602ZM1219.47 106.112L1217.92 105.891C1215.72 105.45 1213.66 104.714 1211.75 103.685C1209.98 102.655 1208.22 101.626 1206.45 100.596C1204.69 99.5664 1202.99 98.6839 1201.38 97.9485C1199.76 97.0659 1198.14 96.6247 1196.52 96.6247C1191.38 97.213 1186.89 98.9781 1183.06 101.92C1179.39 104.862 1177.55 108.392 1177.55 112.51C1177.55 113.687 1177.84 114.937 1178.43 116.261C1179.02 117.585 1179.98 119.276 1181.3 121.335C1185.12 123.689 1189.32 124.865 1193.88 124.865C1199.17 124.865 1203.8 124.351 1207.78 123.321L1210.64 120.453C1212.11 118.541 1214.1 117.585 1216.6 117.585H1217.7C1217.85 116.408 1218 115.231 1218.14 114.054C1218.29 112.878 1218.51 111.701 1218.81 110.524L1219.47 106.112ZM1222.78 132.808L1217.7 137.662C1215.79 139.427 1212.7 140.677 1208.44 141.413C1204.32 142.295 1199.98 142.736 1195.42 142.736C1189.24 142.736 1183.95 142.074 1179.53 140.751C1175.27 139.427 1171.52 136.853 1168.28 133.029C1162.99 125.968 1160.34 119.35 1160.34 113.172C1160.34 109.054 1161.15 105.009 1162.77 101.037C1164.53 96.9189 1166.96 93.2417 1170.05 90.0058C1173.14 86.7699 1176.89 84.1223 1181.3 82.0631C1185.86 80.0039 1190.93 78.9743 1196.52 78.9743C1198.88 79.2684 1201.16 79.7832 1203.36 80.5187C1205.57 81.2541 1207.63 82.0631 1209.54 82.9456C1211.45 83.8281 1213.14 84.7107 1214.61 85.5932C1216.23 86.3286 1217.48 86.917 1218.37 87.3582L1217.04 81.4012C1216.31 79.0478 1215.42 76.768 1214.39 74.5617C1213.36 72.2083 1212.11 69.9284 1210.64 67.7221L1206.23 63.7508C1205.05 63.4566 1203.95 63.0889 1202.92 62.6476C1201.89 62.0593 1200.57 61.7651 1198.95 61.7651C1194.68 62.0593 1190.49 62.6476 1186.37 63.5302C1182.26 64.2656 1178.14 65.3687 1174.02 66.8396C1173.58 66.9867 1172.92 67.0602 1172.03 67.0602C1168.94 67.0602 1166.52 66.1777 1164.75 64.4127C1163.13 62.6476 1162.33 60.7355 1162.33 58.6763C1162.33 56.9113 1162.77 55.3668 1163.65 54.0431C1164.53 52.5722 1166.22 51.1013 1168.72 49.6305C1172.55 48.4538 1176.74 47.2035 1181.3 45.8797C1186.01 44.4089 1190.71 43.6734 1195.42 43.6734C1203.51 43.6734 1210.2 45.2914 1215.5 48.5273C1220.94 51.7632 1225.21 56.0287 1228.29 61.3239C1231.53 66.4719 1233.74 72.2083 1234.91 78.533C1236.24 84.8577 1236.9 91.1089 1236.9 97.2866C1236.9 100.964 1236.75 104.935 1236.46 109.201C1236.31 113.319 1235.8 117.217 1234.91 120.894C1234.18 124.424 1233.07 127.366 1231.6 129.719C1230.13 132.073 1228.15 133.249 1225.65 133.249C1225.06 133.249 1224.47 133.249 1223.88 133.249C1223.29 133.102 1222.93 132.955 1222.78 132.808ZM1324.93 76.3267C1321.69 76.0325 1319.41 75.0029 1318.09 73.2379C1316.77 71.3258 1316.1 69.2665 1316.1 67.0602C1316.1 65.001 1316.84 63.0154 1318.31 61.1032C1319.93 59.1911 1321.99 58.235 1324.49 58.235C1329.34 58.235 1334.42 58.3821 1339.71 58.6763C1345.01 58.8234 1350.3 59.044 1355.6 59.3382C1360.89 59.4853 1366.11 59.6324 1371.26 59.7794C1376.41 59.9265 1381.26 60.0001 1385.82 60.0001C1388.47 60.8826 1390.38 62.2064 1391.56 63.9714C1392.88 65.5894 1393.55 67.3544 1393.55 69.2665C1393.55 71.3258 1392.81 73.1643 1391.34 74.7823C1389.87 76.4003 1387.88 77.5034 1385.38 78.0917H1384.06C1380.68 77.7976 1378.32 76.768 1377 75.0029C1375.67 73.0908 1375.01 71.0316 1375.01 68.8253C1375.01 66.7661 1375.75 64.7804 1377.22 62.8683C1378.84 60.9561 1381.26 60.0001 1384.5 60.0001H1385.82C1388.47 60.8826 1390.38 62.2064 1391.56 63.9714C1392.88 65.5894 1393.55 67.3544 1393.55 69.2665C1393.55 71.3258 1392.81 73.1643 1391.34 74.7823C1389.87 76.4003 1387.88 77.5034 1385.38 78.0917C1380.97 78.0917 1376.12 78.0182 1370.82 77.8711C1365.67 77.724 1360.38 77.5769 1354.94 77.4299C1349.64 77.1357 1344.42 76.9151 1339.27 76.768C1334.12 76.4738 1329.34 76.3267 1324.93 76.3267ZM1364.64 20.7279C1363.32 21.9046 1362.07 23.0813 1360.89 24.258C1359.86 25.2876 1359.05 27.2733 1358.47 30.215C1357.88 33.598 1357.44 36.8339 1357.14 39.9227C1356.85 43.0116 1356.7 46.1739 1356.7 49.4098C1356.7 56.0287 1357.14 62.6476 1358.02 69.2665C1358.91 75.7384 1359.86 82.2837 1360.89 88.9026C1362.07 95.3744 1363.1 101.993 1363.98 108.759C1364.86 115.378 1365.31 122.071 1365.31 128.837C1365.31 131.337 1365.23 133.838 1365.08 136.338C1364.94 138.691 1364.5 140.751 1363.76 142.516C1363.03 144.428 1361.92 145.972 1360.45 147.149C1358.98 148.326 1356.99 148.914 1354.49 148.914C1352.29 148.62 1350.45 147.737 1348.98 146.266C1347.51 144.796 1346.7 142.736 1346.55 140.089V139.206C1346.99 136.559 1348.02 134.5 1349.64 133.029C1351.41 131.411 1353.32 130.602 1355.38 130.602C1357.14 130.602 1358.83 131.264 1360.45 132.587C1362.07 133.764 1363.39 135.823 1364.42 138.765V141.192C1362.36 141.486 1360.6 141.633 1359.13 141.633C1357.8 141.78 1356.48 141.854 1355.16 141.854C1353.98 141.854 1352.66 141.854 1351.18 141.854C1349.86 141.854 1348.24 141.927 1346.33 142.074C1346.77 137.956 1346.99 133.838 1346.99 129.719C1346.99 122.218 1346.4 115.011 1345.23 108.097C1344.05 101.184 1342.95 94.2713 1341.92 87.3582C1341.04 81.1806 1340.3 75.15 1339.71 69.2665C1339.12 63.236 1338.83 57.1319 1338.83 50.9542C1338.83 47.2771 1338.98 42.6438 1339.27 37.0545C1339.57 31.3182 1340.59 25.8024 1342.36 20.5073C1344.27 15.2122 1347.29 10.726 1351.41 7.04884C1355.52 3.22458 1361.33 1.31246 1368.84 1.31246C1372.22 1.31246 1374.87 2.12143 1376.78 3.73939C1378.69 5.35734 1379.65 7.19593 1379.65 9.25514C1379.65 12.7852 1377.81 15.9476 1374.13 18.7422C1372.37 19.3306 1370.67 19.7718 1369.06 20.066C1367.59 20.2131 1366.11 20.4337 1364.64 20.7279ZM1425.32 55.3668C1423.26 53.0135 1422.23 50.7336 1422.23 48.5273C1422.23 46.0268 1422.96 43.8941 1424.43 42.129C1426.05 40.364 1428.11 39.4815 1430.61 39.4815C1432.52 39.4815 1434.44 40.0698 1436.35 41.2465C1438.26 42.2761 1440.03 43.5999 1441.64 45.2179C1443.26 46.6887 1444.66 48.1596 1445.84 49.6305C1447.01 51.1013 1447.75 52.1309 1448.04 52.7193C1448.34 52.5722 1449 52.4987 1450.03 52.4987C1452.82 52.4987 1455.47 53.2341 1457.97 54.705C1460.62 56.0287 1462.97 57.7938 1465.03 60.0001C1467.24 62.2064 1469.15 64.5598 1470.77 67.0602C1472.38 69.5607 1473.78 71.9141 1474.96 74.1204C1476.14 76.3267 1477.16 78.7536 1478.05 81.4012C1479.08 83.9017 1479.89 86.4757 1480.47 89.1233C1481.06 91.7708 1481.5 94.3448 1481.8 96.8453C1482.09 99.3458 1482.24 101.626 1482.24 103.685C1482.24 109.715 1481.43 115.378 1479.81 120.673C1478.34 125.821 1475.84 130.381 1472.31 134.352C1468.93 138.324 1464.44 141.413 1458.85 143.619C1453.26 145.972 1446.42 147.149 1438.33 147.149C1432.45 147.149 1427.6 145.384 1423.77 141.854C1420.1 138.324 1417.23 134.205 1415.17 129.499C1413.11 124.645 1411.64 119.717 1410.76 114.716C1410.02 109.715 1409.65 105.671 1409.65 102.582C1409.65 99.64 1410.02 96.7718 1410.76 93.9771C1411.49 91.1825 1412.45 88.6085 1413.62 86.2551C1414.8 83.7546 1415.98 81.5483 1417.15 79.6362C1418.48 77.724 1419.73 76.1061 1420.9 74.7823L1431.94 61.7651C1431.79 61.1768 1431.27 60.5149 1430.39 59.7794C1429.66 58.8969 1428.92 58.0879 1428.18 57.3525L1425.32 55.3668ZM1447.6 69.4872L1446.72 70.811C1444.95 73.0173 1442.97 75.2971 1440.76 77.6505C1438.7 80.0039 1436.72 82.4308 1434.8 84.9313C1432.89 87.4318 1431.27 90.1529 1429.95 93.0946C1428.63 96.0363 1427.96 99.2722 1427.96 102.802C1427.96 106.038 1428.18 109.274 1428.63 112.51C1429.21 115.599 1429.95 118.394 1430.83 120.894C1431.86 123.394 1433.11 125.454 1434.58 127.072C1436.05 128.543 1437.75 129.278 1439.66 129.278C1441.28 129.278 1442.89 129.131 1444.51 128.837C1446.28 128.543 1447.82 128.248 1449.14 127.954L1457.09 123.983C1457.53 123.394 1458.26 122.659 1459.29 121.777C1460.32 120.747 1461.13 119.717 1461.72 118.688C1463.04 113.834 1463.71 109.054 1463.71 104.347C1463.71 98.1691 1462.68 92.2856 1460.62 86.6963C1458.56 80.9599 1455.4 75.7384 1451.13 71.0316L1448.48 69.7078H1448.26C1447.97 69.7078 1447.75 69.6343 1447.6 69.4872ZM1507.17 130.602C1507.17 126.63 1507.24 122.512 1507.39 118.246C1507.69 113.981 1508.2 109.936 1508.94 106.112L1510.48 89.7851L1512.47 77.8711C1512.91 75.959 1513.13 74.1939 1513.13 72.576C1513.13 70.811 1512.76 68.9724 1512.02 67.0602C1511.44 65.1481 1509.74 64.192 1506.95 64.192C1505.77 64.192 1504.6 63.8979 1503.42 63.3095C1502.39 62.5741 1501.43 61.7651 1500.55 60.8826C1499.67 59.853 1498.93 58.8234 1498.35 57.7938C1497.9 56.7642 1497.68 55.8081 1497.68 54.9256C1497.68 53.1605 1498.57 51.2484 1500.33 49.1892C1502.1 47.13 1504.52 46.1004 1507.61 46.1004C1515.26 46.8358 1520.85 48.9686 1524.38 52.4987C1527.91 56.0287 1529.67 60.3678 1529.67 65.5158C1534.09 62.427 1539.24 60.1472 1545.12 58.6763C1551 57.0583 1557.99 55.9552 1566.08 55.3668C1569.31 55.3668 1571.82 56.2494 1573.58 58.0144C1575.35 59.6324 1576.23 61.6916 1576.23 64.192C1576.23 66.3984 1575.49 68.384 1574.02 70.1491C1572.55 71.767 1570.56 72.7966 1568.06 73.2379C1561.3 73.6791 1555.56 74.4146 1550.86 75.4442C1546.15 76.4738 1542.18 78.1653 1538.94 80.5187C1535.71 82.725 1533.2 85.7403 1531.44 89.5645C1529.67 93.3888 1528.35 98.3162 1527.47 104.347L1526.81 107.656V116.702C1526.66 118.908 1526.51 121.188 1526.37 123.542C1526.37 125.748 1526.22 128.028 1525.92 130.381L1525.26 134.352L1523.94 137.883C1521.58 140.677 1518.86 142.074 1515.77 142.074C1510.48 142.074 1507.61 138.986 1507.17 132.808V130.602ZM1649.7 16.9772C1649.55 16.5359 1649.48 15.9476 1649.48 15.2122C1649.48 12.4175 1650.36 10.2112 1652.12 8.59325C1653.89 6.82821 1655.8 5.94569 1657.86 5.94569C1659.77 5.94569 1661.69 6.53404 1663.6 7.71073C1665.51 8.88742 1666.76 10.7996 1667.35 13.4471C1669.41 22.7136 1671.61 31.7594 1673.97 40.5846C1676.47 49.2627 1679.11 58.3086 1681.91 67.7221C1682.79 71.9876 1683.75 76.5473 1684.78 81.4012C1685.81 86.2551 1686.98 91.1089 1688.31 95.9628C1689.63 100.67 1691.18 105.229 1692.94 109.642C1694.71 113.907 1696.69 117.585 1698.9 120.673C1700.66 121.997 1702.8 122.659 1705.3 122.659C1712.06 122.659 1717.65 120.526 1722.06 116.261C1726.48 111.995 1729.93 106.921 1732.43 101.037C1734.93 95.0067 1736.63 88.7555 1737.51 82.2837C1738.54 75.8119 1739.05 70.3697 1739.05 65.9571V46.7623C1739.05 41.9084 1738.91 37.0545 1738.61 32.2007C1738.32 27.1997 1738.24 22.2723 1738.39 17.4185C1738.83 14.7709 1739.86 12.7117 1741.48 11.2408C1743.24 9.62286 1745.16 8.81388 1747.22 8.81388C1749.13 8.81388 1750.89 9.47577 1752.51 10.7996C1754.28 11.9762 1755.6 14.0355 1756.48 16.9772C1756.48 23.8903 1756.63 30.7298 1756.92 37.4958C1757.37 44.1147 1757.59 50.8072 1757.59 57.5731C1757.59 65.3687 1757 73.6791 1755.82 82.5044C1754.79 91.3296 1752.58 99.7135 1749.2 107.656C1745.82 115.452 1741.04 122.365 1734.86 128.395C1728.83 134.279 1720.81 138.177 1710.81 140.089C1709.93 140.236 1708.97 140.309 1707.94 140.309C1707.06 140.309 1706.11 140.309 1705.08 140.309C1699.63 140.309 1695 139.206 1691.18 137C1687.35 134.647 1684.12 131.558 1681.47 127.734C1678.82 123.909 1676.61 119.57 1674.85 114.716C1673.08 109.862 1671.54 104.862 1670.22 99.7135C1669.04 94.5655 1668.01 89.5645 1667.13 84.7107C1666.24 79.7097 1665.29 75.15 1664.26 71.0316C1662.05 62.2064 1659.48 53.2341 1656.54 44.1147C1653.74 34.9953 1651.46 25.9495 1649.7 16.9772ZM1781.41 22.2723C1780.24 21.9781 1779.13 21.0221 1778.1 19.4041C1777.07 17.6391 1776.56 15.874 1776.56 14.109C1776.56 11.9027 1777.3 9.84349 1778.77 7.93136C1780.38 6.01923 1782.3 5.06317 1784.5 5.06317C1789.5 5.06317 1793.47 5.7986 1796.42 7.26947C1799.36 8.59325 1801.56 10.4318 1803.04 12.7852C1804.65 15.1386 1805.68 17.8597 1806.12 20.9485C1806.71 24.0374 1807.01 27.2733 1807.01 30.6563C1807.01 39.1873 1806.42 47.4977 1805.24 55.5875C1804.21 63.6772 1803.48 71.2522 1803.04 78.3124C1802.74 78.6066 1802.59 78.8272 1802.59 78.9743C1802.74 78.8272 1802.89 78.7536 1803.04 78.7536L1814.51 73.0173C1821.27 70.5168 1827.3 69.2665 1832.6 69.2665C1836.57 69.2665 1840.4 70.1491 1844.07 71.9141C1847.75 73.5321 1850.91 75.959 1853.56 79.1949C1856.35 82.4308 1858.56 86.4022 1860.18 91.1089C1861.8 95.8157 1862.61 101.258 1862.61 107.436C1862.61 113.319 1861.36 118.541 1858.85 123.1C1856.35 127.66 1853.12 131.558 1849.15 134.794C1845.18 137.883 1840.76 140.236 1835.91 141.854C1831.2 143.472 1826.57 144.281 1822.01 144.281C1816.86 144.281 1812.01 143.472 1807.45 141.854C1802.89 140.383 1798.99 138.177 1795.75 135.235L1794.43 136.779C1792.37 137.809 1790.31 138.324 1788.25 138.324C1785.75 138.324 1783.69 137.515 1782.08 135.897C1780.6 134.279 1779.72 131.999 1779.43 129.057C1779.43 127.145 1779.43 124.939 1779.43 122.438C1779.58 119.938 1779.8 117.437 1780.09 114.937C1780.53 112.437 1780.97 109.936 1781.41 107.436C1782 104.935 1782.74 102.729 1783.62 100.817C1783.62 100.375 1783.55 99.9341 1783.4 99.4929C1783.4 98.9045 1783.4 98.3897 1783.4 97.9485C1783.4 92.3592 1783.77 85.9609 1784.5 78.7536C1785.39 71.3993 1786.41 63.7508 1787.59 55.8081C1788.18 52.1309 1788.69 48.5273 1789.14 44.9972C1789.58 41.4671 1789.8 38.0106 1789.8 34.6276C1789.8 30.8034 1789.36 27.1997 1788.47 23.8167H1786.49C1786.05 23.8167 1784.5 23.3755 1781.85 22.493L1781.41 22.2723ZM1800.83 107.656L1800.17 113.834C1800.61 113.981 1801.12 114.422 1801.71 115.158C1802.45 115.746 1803.11 116.408 1803.7 117.143C1804.43 117.879 1805.09 118.688 1805.68 119.57C1806.27 120.306 1806.64 120.894 1806.79 121.335C1808.55 123.1 1810.9 124.351 1813.85 125.086C1816.79 125.821 1819.36 126.189 1821.57 126.189C1823.92 126.189 1826.42 125.821 1829.07 125.086C1831.72 124.203 1834.14 122.88 1836.35 121.115C1838.7 119.35 1840.62 117.143 1842.09 114.496C1843.56 111.848 1844.29 108.686 1844.29 105.009C1844.29 103.832 1844.07 102.361 1843.63 100.596C1843.34 98.6839 1842.9 96.9189 1842.31 95.3009C1841.87 93.5359 1841.28 92.065 1840.54 90.8883C1839.81 89.5645 1839.07 88.9026 1838.34 88.9026C1837.31 88.6085 1836.28 88.3878 1835.25 88.2407C1834.36 88.0936 1833.34 88.0201 1832.16 88.0201C1829.36 88.0201 1826.35 88.5349 1823.11 89.5645C1820.02 90.447 1817.01 91.6973 1814.07 93.3152C1811.27 94.9332 1808.7 96.8453 1806.34 99.0516C1803.99 101.258 1802.3 103.611 1801.27 106.112L1800.83 107.656ZM1897.02 78.7536C1896.73 78.9007 1896.58 79.0478 1896.58 79.1949H1897.02C1898.05 79.1949 1899.08 79.4891 1900.11 80.0774C1901.14 80.5187 1902.02 81.107 1902.76 81.8425C1903.5 82.4308 1904.08 83.0192 1904.53 83.6075C1905.11 84.0488 1905.48 84.2694 1905.63 84.2694C1907.83 85.299 1910.26 85.8138 1912.91 85.8138C1917.17 85.8138 1920.78 85.2255 1923.72 84.0488C1926.66 82.725 1928.13 79.6362 1928.13 74.7823C1927.25 71.8406 1926.22 69.4136 1925.04 67.5015C1924.01 65.5894 1922.25 63.7508 1919.75 61.9857L1915.12 60.0001H1912.03C1910.85 60.0001 1909.31 60.2942 1907.39 60.8826C1905.48 61.4709 1903.57 62.2799 1901.66 63.3095C1901.07 64.192 1900.48 65.5158 1899.89 67.2809C1899.3 68.8988 1898.79 70.5168 1898.35 72.1347C1897.91 73.7527 1897.54 75.2236 1897.24 76.5473C1897.1 77.8711 1897.02 78.6066 1897.02 78.7536ZM1898.79 100.155L1898.13 97.7278C1899.89 105.523 1904.16 111.922 1910.92 116.923C1912.39 118.099 1914.23 119.129 1916.44 120.011C1918.79 120.894 1921.07 121.703 1923.28 122.438C1925.63 123.174 1927.69 123.762 1929.46 124.203C1931.22 124.498 1932.32 124.645 1932.77 124.645C1934.24 123.321 1936.08 122.659 1938.28 122.659C1940.93 122.953 1942.99 124.056 1944.46 125.968C1945.93 127.734 1946.67 129.646 1946.67 131.705C1946.67 134.941 1945.12 137.515 1942.03 139.427C1939.09 141.486 1935.93 142.516 1932.55 142.516C1925.34 142.516 1918.5 141.045 1912.03 138.103C1905.55 135.309 1899.89 131.484 1895.04 126.63C1890.18 121.777 1886.21 116.187 1883.12 109.862C1880.18 103.538 1878.56 96.8453 1878.27 89.7851C1878.27 84.9313 1878.64 79.7097 1879.37 74.1204C1880.11 68.5311 1881.65 63.3831 1884.01 58.6763C1886.36 53.8224 1889.74 49.7775 1894.16 46.5416C1898.72 43.3057 1904.75 41.6878 1912.25 41.6878C1916.95 41.6878 1921.37 42.7174 1925.49 44.7766C1929.6 46.6887 1933.13 49.3363 1936.08 52.7193C1939.16 56.1023 1941.59 60.0001 1943.36 64.4127C1945.12 68.6782 1946 73.1643 1946 77.8711C1946 82.1366 1945.19 85.8873 1943.58 89.1233C1942.11 92.3592 1940.05 95.0803 1937.4 97.2866C1934.75 99.3458 1931.59 100.964 1927.91 102.14C1924.38 103.17 1920.63 103.685 1916.66 103.685C1915.04 103.685 1913.2 103.538 1911.14 103.244C1909.23 102.949 1907.39 102.655 1905.63 102.361C1903.86 101.92 1902.32 101.552 1901 101.258C1899.82 100.817 1899.08 100.449 1898.79 100.155Z" fill="white"/>
</svg>
